<!-- 定位 -->
<svg id="address" width="100%" height="100%" viewBox="0 0 1024 1024" version="1.1" xmlns="http://www.w3.org/2000/svg"><path d="M527.053 96.924c-169.131 0.322-306.127 137.496-306.127 306.7 0 157.986 128.978 324.17 278.121 502.935 7.838 9.418 17.977 14.485 28.006 15.061 10.029-0.576 20.168-5.643 28.002-15.061 149.144-178.765 278.123-344.948 278.123-502.935 0-169.205-136.997-306.378-306.126-306.7zM527.053 500.967c-66.070-0.358-119.562-53.956-119.562-120.099s53.492-119.74 119.562-120.099c66.069 0.358 119.557 53.956 119.557 120.099s-53.487 119.74-119.557 120.099z" /></svg>
<!-- <svg t="1523161893225" id="address" style="" viewBox="0 0 1024 1024" version="1.1" xmlns="http://www.w3.org/2000/svg" p-id="1991" xmlns:xlink="http://www.w3.org/1999/xlink" width="100%" height="100%"><defs><style type="text/css"></style></defs><path d="M512 65c-162.7 0-295 132.3-295 295 0 156 266.8 572.1 278.2 589.8 3.7 5.7 10 9.2 16.8 9.2s13.1-3.5 16.8-9.2C540.2 932.1 807 516 807 360c0-162.6-132.3-295-295-295z m0 836.4C452.7 806.3 257 483.1 257 360c0-140.6 114.4-255 255-255s255 114.4 255 255c0 123.1-195.7 446.3-255 541.4z" fill="#3E3A39" p-id="1992"></path><path d="M512 231.4c-70.9 0-128.6 57.7-128.6 128.6 0 70.9 57.7 128.6 128.6 128.6S640.6 431 640.6 360c0-70.9-57.7-128.6-128.6-128.6z m0 217.2c-48.8 0-88.6-39.7-88.6-88.6 0-48.8 39.7-88.6 88.6-88.6 48.9 0 88.6 39.7 88.6 88.6 0 48.9-39.8 88.6-88.6 88.6z" fill="#3E3A39" p-id="1993"></path></svg> -->
<!-- 浏览 -->
<svg id="look" width="100%" height="100%" viewBox="0 0 1024 1024" version="1.1" xmlns="http://www.w3.org/2000/svg"><path fill="" d="M510.557138 204.354248c-302.839283 0-458.323497 306.150702-458.323497 306.150702s117.330242 306.189587 458.323497 306.189587c308.802088 0 458.300984-304.995389 458.300984-304.995389S818.167075 204.354248 510.557138 204.354248L510.557138 204.354248 510.557138 204.354248zM511.245823 701.866279c-110.729917 0-190.772928-83.72589-190.772928-191.364399 0-107.647719 80.049151-191.352119 190.772928-191.352119 110.723777 0 190.763718 83.697237 190.763718 191.352119C702.010565 618.140389 621.970624 701.866279 511.245823 701.866279L511.245823 701.866279 511.245823 701.866279zM511.245823 395.675668c-63.286372 0.145309-114.460892 53.321416-114.460892 114.827235 0 61.473073 51.175543 114.821095 114.460892 114.821095 63.282279 0 114.453728-53.352115 114.453728-114.821095C625.703645 448.975595 574.529125 395.556964 511.245823 395.675668L511.245823 395.675668 511.245823 395.675668z" /></svg>
<!-- 时间 -->
<svg id="time" t="1522917469703" style="" viewBox="0 0 1024 1024" version="1.1" xmlns="http://www.w3.org/2000/svg" p-id="4446" xmlns:xlink="http://www.w3.org/1999/xlink" width="100%" height="100%"><defs><style type="text/css"></style></defs><path d="M502.897778 75.093333C257.137778 75.093333 59.164444 273.066667 59.164444 518.826667s200.248889 443.733333 443.733334 443.733333c245.76 0 443.733333-197.973333 443.733333-443.733333S746.382222 75.093333 502.897778 75.093333z m288.995555 577.991111c-6.826667 13.653333-18.204444 20.48-31.857777 20.48-4.551111 0-9.102222 0-13.653334-2.275555l-261.688889-118.328889c-11.377778-4.551111-20.48-18.204444-20.48-31.857778V275.342222c0-18.204444 15.928889-34.133333 34.133334-34.133333s34.133333 15.928889 34.133333 34.133333V500.622222L773.688889 609.848889c18.204444 6.826667 25.031111 25.031111 18.204444 43.235555z" fill="" p-id="4447"></path></svg>
<!-- 空心时间 -->
<svg id="timek" t="1523161550495" class="icon" style="" viewBox="0 0 1024 1024" version="1.1" xmlns="http://www.w3.org/2000/svg" p-id="1624" xmlns:xlink="http://www.w3.org/1999/xlink" width="100%" height="100%"><defs><style type="text/css"></style></defs><path d="M513.006422 959.821305c-120.123868 0-233.051847-46.778396-317.993424-131.713834C110.064256 743.159754 63.28586 630.224612 63.28586 510.100744c0-120.124891 46.778396-233.051847 131.727137-317.993424C279.941272 107.171881 392.882554 60.392462 513.006422 60.392462c120.111588 0 233.051847 46.778396 317.994448 131.713834 175.34761 175.35375 175.334307 460.660728 0 635.994012C746.058268 913.042909 633.131313 959.821305 513.006422 959.821305zM513.006422 141.080156c-98.573039 0-191.250812 38.386262-260.945127 108.081601C182.359816 318.863235 143.972531 411.533844 143.972531 510.100744c0 98.574063 38.387285 191.243649 108.087741 260.95229 69.708642 69.694315 162.372088 108.080577 260.945127 108.080577 98.574063 0 191.237509-38.386262 260.946151-108.087741 143.880945-143.874805 143.880945-377.99089 0-521.885138C704.243931 179.466418 611.568205 141.080156 513.006422 141.080156z" p-id="1625"></path><path d="M513.506818 568.060807c-22.286586 0-40.343847-18.063401-40.343847-40.342824L473.162972 303.097156c0-22.279423 18.057261-40.343847 40.343847-40.343847 22.285562 0 40.343847 18.064424 40.343847 40.343847l0 224.620827C553.849642 549.997406 535.792381 568.060807 513.506818 568.060807z" p-id="1626"></path><path d="M393.880277 696.459129c-10.32209 0-20.644179-3.939729-28.523637-11.812023-15.758915-15.758915-15.758915-41.302685 0-57.05546l119.624495-119.638821c15.733333-15.758915 41.289382-15.752776 57.048297-0.00614 15.758915 15.758915 15.758915 41.301661 0 57.05546L422.404937 684.639942C414.538783 692.5194 404.20339 696.459129 393.880277 696.459129z" p-id="1627"></path></svg>
<!-- 搜索 -->
<svg id="search" width="100%" height="100%" viewBox="0 0 1024 1024" version="1.1" xmlns="http://www.w3.org/2000/svg"><path fill="" d="M960 914.7L748.1 702.8c25.4-29.9 46.1-63.4 61.5-99.8 20.3-47.9 30.5-98.6 30.5-151s-10.2-103.1-30.5-151c-19.6-46.2-47.5-87.7-83.1-123.3C690.8 142 649.3 114.1 603 94.5 555.1 74.2 504.4 64 452 64c-52.4 0-103.1 10.2-151 30.5-46.2 19.6-87.7 47.5-123.3 83.1C142 213.2 114.1 254.7 94.5 301 74.2 348.9 64 399.6 64 452s10.2 103.1 30.5 151c19.6 46.2 47.5 87.7 83.1 123.3 35.6 35.6 77.1 63.6 123.3 83.1 47.9 20.3 98.6 30.5 151 30.5 52.4 0 103.1-10.2 151-30.5 36.4-15.4 69.8-36 99.8-61.5L914.7 960 960 914.7zM578.1 750.6C538.2 767.4 495.8 776 452 776c-43.8 0-86.2-8.6-126.1-25.4-38.6-16.3-73.3-39.7-103-69.5-29.7-29.7-53.1-64.4-69.5-103C136.6 538.2 128 495.8 128 452s8.6-86.2 25.4-126.1c16.3-38.6 39.7-73.3 69.5-103 29.7-29.7 64.4-53.1 103-69.5C365.8 136.6 408.2 128 452 128c43.8 0 86.2 8.6 126.1 25.4 38.6 16.3 73.3 39.7 103 69.5 29.7 29.7 53.1 64.4 69.5 103C767.4 365.8 776 408.2 776 452s-8.6 86.2-25.4 126.1c-16.3 38.6-39.7 73.3-69.5 103C651.4 710.9 616.7 734.2 578.1 750.6z"  /></svg>
<!-- qq -->
<svg class="icon" width="200px" height="200.00px" viewBox="0 0 1024 1024" version="1.1" xmlns="http://www.w3.org/2000/svg"><path fill="#333333" d="M154.383755 460.752015q-4.57457-10.844611-4.57457-29.718713 0-11.420431 6.270041-27.991253t13.723711-25.719963q-0.57582-12.572071 4.28666-30.262543t12.859981-24.568322q0-79.399188 52.847485-164.812496t124.249172-119.674602q79.399188-37.716214 185.094158-37.716214 75.976257 0 151.952515 31.414183 27.991253 11.996251 51.407935 27.415433t40.563324 31.990003 31.414183 38.835864 23.992502 42.258794 18.554202 48.272915 14.555451 51.120025 12.572071 55.982505l0.57582 2.84711q31.414183 47.409185 31.414183 85.701218 0 7.997501-5.150391 22.840862t-5.150391 21.721212q0 0.57582 0.86373 2.01537t2.01537 2.84711 1.15164 2.01537q43.986254 65.131646 68.842487 122.521712t24.856232 119.098782q0 24.568322-11.132521 57.134146t-31.702093 32.565823q-5.150391 0-11.132521-4.28666t-10.844611-10.012871-10.844611-14.843361-9.149141-15.131271-7.709591-14.843361-5.150391-10.012871q-0.57582-0.57582-1.72746-0.57582l-2.84711 2.27129q-33.717463 87.972509-75.400437 127.384192 11.420431 11.420431 35.125023 22.009122t39.411684 23.704592 20.281662 37.140394q-1.15164 2.27129-2.27129 9.149141t-3.99875 10.268791q-36.564574 55.406685-172.522087 55.406685-30.262543 0-63.116276-5.150391t-55.982505-11.420431-59.693346-17.146642q-8.573321-2.84711-13.147891-3.99875-7.997501-2.27129-26.263793-2.5592t-22.840862-0.86373q-23.416682 25.719963-72.841237 37.140394t-96.257919 11.420431q-19.993752 0-39.411684-0.86373t-53.135395-5.150391-57.709966-11.708341-42.546704-22.840862-18.554202-36.564574q0-22.840862 5.726211-34.005373t23.416682-27.703343q6.270041-1.15164 23.128772-7.421681t28.279163-6.845861q2.27129 0 7.997501-1.15164 1.15164-1.15164 1.15164-2.27129l-1.15164-1.72746q-27.415433-6.270041-61.708716-60.269166t-41.714964-89.412059l-2.84711-1.72746q-2.27129 0-6.845861 11.420431-10.268791 23.416682-31.126273 42.546704t-44.274164 21.433302l-0.57582 0q-2.27129 0-3.42293-2.5592t-2.84711-3.13502q-13.147891-30.838363-13.147891-57.134146 0-157.102905 143.955014-266.188816z" /></svg>
<!-- phone -->
<svg class="icon" width="200px" height="200.00px" viewBox="0 0 1024 1024" version="1.1" xmlns="http://www.w3.org/2000/svg"><path fill="#333333" d="M798.557091 738.280727l-0.907636-0.674909-129.233455-100.282182 0.139636 0-0.139636 0.721455c-0.954182-0.721455-2.071273-0.721455-3.188364-0.721455l-0.744727 0c-1.466182 0-2.606545 0-4.468364 0l-0.372364 0c-1.466182 0-3.002182-1.536-4.282182-0.814545-1.140364 0.698182-2.420364 0.814545-3.188364 0.814545l-0.395636 0-39.330909 55.202909c-2.048 3.397818-4.817455 6.935273-8.494545 8.773818 0 0.209455-48.081455 33.349818-104.517818-6.050909-33.815273-23.761455-59.042909-49.105455-94.836364-77.312l0-0.209455c-17.92-28.206545-52.270545-59.229091-75.636364-92.625455-39.377455-56.273455-5.515636-102.516364-5.329455-102.516364 1.861818-2.955636 4.375273-5.562182 7.563636-7.796364l53.341091-38.795636 2.210909-1.303273c1.070545-0.744727 2.048-2.071273 2.816-2.792727l0.418909-0.768c0.721455-1.28 1.117091-2.816 1.303273-4.445091 0.372364-1.652364 0-3.351273 0-4.654545-0.372364-1.117091-0.558545-2.234182-1.675636-3.141818l-0.349091-0.954182-100.468364-129.070545c-0.954182-1.28-2.071273-2.397091-3.188364-3.118545l-0.721455-0.186182c-1.117091-0.744727-2.978909-1.140364-4.840727-1.303273-1.489455 0-2.978909 0.162909-4.258909 0.558545l-0.744727 0.372364c-1.326545 0.558545-2.792727 1.652364-4.282182 2.816-5.213091 5.911273-10.775273 13.335273-16.500364 22.434909-5.585455 9.099636-10.589091 19.874909-15.034182 33.047273-19.688727 59.601455-15.988364 124.229818 4.817455 186.833455 23.04 68.887273 66.490182 135.377455 121.646545 190.533818 55.156364 55.179636 122.018909 98.816 190.557091 121.646545 62.766545 20.852364 127.208727 24.901818 186.786909 4.840727 12.427636-4.072727 23.016727-9.122909 32.116364-14.475636l1.140364-0.535273c8.913455-5.352727 14.917818-11.310545 20.852364-16.733091 1.489455-1.303273 1.326545-2.420364 1.326545-4.072727l0 0.162909 1.629091-0.162909c0.372364-1.349818 1.466182-3.165091 1.326545-5.026909 0-1.861818-0.232727-3.700364-0.768-5.050182C800.023273 740.445091 799.674182 739.397818 798.557091 738.280727zM977.454545 188.276364C977.454545 110.010182 913.989818 46.545455 835.723636 46.545455L188.276364 46.545455C110.010182 46.545455 46.545455 110.010182 46.545455 188.276364l0 647.447273C46.545455 913.989818 110.010182 977.454545 188.276364 977.454545l647.447273 0c78.266182 0 141.730909-63.464727 141.730909-141.730909L977.454545 188.276364zM849.826909 771.328c-3.351273 8.192-8.727273 15.988364-15.592727 22.690909-8.541091 7.819636-18.594909 15.592727-30.859636 22.993455l-1.815273 0.768c-11.543273 7.051636-25.809455 13.544727-42.007273 18.920727-70.935273 23.761455-146.711273 19.688727-219.508364-4.817455-77.079273-25.646545-150.784-73.541818-211.339636-134.097455-60.555636-60.578909-108.474182-134.306909-134.097455-211.153455-24.133818-72.610909-28.602182-148.736-4.817455-219.671273C195.141818 249.856 202.402909 235.729455 209.454545 223.464727 216.901818 210.850909 225.047273 200.820364 232.843636 192.465455c6.330182-7.074909 14.126545-12.450909 22.667636-15.802182L257.396364 175.941818c7.819636-2.955636 16.337455-4.258909 24.901818-3.886545 9.658182 0.186182 18.571636 2.978909 26.740364 7.074909l1.489455 0.744727 19.479273 16.896 100.468364 129.233455 1.140364 1.861818c4.817455 6.702545 8.168727 13.381818 10.402909 20.829091 1.861818 8.145455 2.420364 16.686545 1.070545 25.623273-1.070545 8.541091-4.072727 16.337455-8.517818 23.761455l-0.744727 1.466182c-4.072727 6.702545-9.658182 12.450909-16.337455 17.268364l-1.885091 0.930909-48.663273 35.677091c-2.955636 7.051636-6.679273 22.667636 6.702545 41.960727 21.573818 30.836364 45.498182 59.275636 71.889455 85.620364 26.368 26.414545 55.133091 50.315636 85.946182 71.703273 19.339636 13.544727 34.56 15.034182 41.611636 12.078545l36.770909-45.288727-0.418909 0c5.399273-17.943273 11.543273-17.943273 18.944-17.943273l-0.209455 0c7.610182-17.896727 15.429818-17.896727 24.366545-17.896727l0.698182 0c8.541091 0 16.733091-0.884364 24.552727 1.396364l1.489455 0.325818c7.377455 2.234182 14.638545 5.934545 21.131636 10.752l129.233455 100.421818 2.257455 6.144c6.330182 5.585455 11.543273 6.306909 15.243636 24.180364l0.372364 0c3.886545 0 6.306909 12.194909 6.679273 21.853091C854.807273 758.365091 853.131636 762.763636 849.826909 771.328z" /></svg>
<!-- 邮件 -->
<svg id="emall" width="100%" height="100%" viewBox="0 0 1031 1024" version="1.1" xmlns="http://www.w3.org/2000/svg"><path fill="" d="M505.6 550.4c6.4 0 12.8 0 12.8 0L1024 217.6 1024 204.8 0 204.8l0 12.8L505.6 550.4zM537.6 595.2C531.2 601.6 518.4 601.6 512 601.6c-6.4 0-12.8 0-19.2-6.4L0 275.2 0 896c0 25.6 19.2 51.2 51.2 51.2l928 0c25.6 0 51.2-19.2 51.2-51.2L1030.4 275.2 537.6 595.2z" /></svg>
<!-- 钱袋 -->
<svg id="purse" t="1524810565156" class="icon" style="" viewBox="0 0 1024 1024" version="1.1" xmlns="http://www.w3.org/2000/svg" p-id="4295" xmlns:xlink="http://www.w3.org/1999/xlink" width="100%" height="100%"><defs><style type="text/css"></style></defs><path d="M382.624676 332.504554l279.628612 0c18.858214 0 37.014904-7.981788 49.119297-22.454576 28.857435-34.295747 56.22408-76.398002 62.363917-114.11443 12.367415-75.520797-19.998641-113.851409-113.851409-113.851409s-62.100696 61.574453-98.589356 66.661803c-27.190965 3.771643-26.226219-32.102834-68.942257-66.574063-30.699586-24.647289-65.082874 44.996692-105.606399 45.435195-47.277146 0.613984-113.763668-12.455155-113.763668 68.328273 0 32.629277 28.594413 76.748764 59.820242 113.324966C345.346751 323.908582 363.4155 332.504554 382.624676 332.504554zM731.458767 404.428989c-14.91109-16.928522-36.576201-26.4017-59.118518-26.4017L373.941164 378.027289c-21.577371 0-42.365276 8.683513-57.276566 24.296527C222.89937 500.562411 136.414607 640.815319 136.414607 743.088578c0 90.168866 90.607368 204.020274 202.353604 204.020274l346.465896 0c111.746236 0 202.353604-112.886463 202.353604-204.020274C887.587911 638.973368 818.031471 502.667583 731.458767 404.428989zM640.325156 528.54284l-59.995523 108.851798c-5.262832 9.560718 1.66647 21.314149 12.542896 21.314149l17.016263 0c7.894248 0 14.384847 6.403059 14.384847 14.384847l0 0c0 7.894248-6.403059 14.384847-14.384847 14.384847l-42.803979 0c-8.33275 0-14.998831 6.66628-15.086571 14.998831l0 7.104783c0 7.894248 6.403059 14.384847 14.384847 14.384847l43.505503 0c7.894248 0 14.384847 6.403059 14.384847 14.384847s-6.403059 14.384847-14.384847 14.384847l-43.505503 0c-7.894248 0-14.384847 6.403059-14.384847 14.384847l0 36.576201c0 7.894248-6.403059 14.384847-14.384847 14.384847l-26.050738 0c-7.894248 0-14.384847-6.403059-14.384847-14.384847l0-36.576201c0-7.894248-6.403059-14.384847-14.384847-14.384847l-43.067001 0c-7.894248 0-14.384847-6.403059-14.384847-14.384847s6.403059-14.384847 14.384847-14.384847l42.97926 0c7.981988 0 14.385047-6.403059 14.472588-14.384847l0.087741-7.017042c0.087741-8.33275-6.66628-15.174312-15.086571-15.174312l-42.453017 0c-7.894248 0-14.384847-6.403059-14.384847-14.384847l0 0c0-7.894248 6.403059-14.384847 14.384847-14.384847l16.57776 0c10.964166 0 17.805728-11.753431 12.542896-21.314149l-59.995723-108.851599c-5.262832-9.560718 1.66647-21.314349 12.542896-21.314349l28.594413 0c5.438113 0 10.437923 3.069919 12.806117 7.894248l48.856076 97.44893c5.262832 10.525464 20.349403 10.525464 25.699975 0l48.856076-97.44893c2.455935-4.824129 7.367805-7.894248 12.806117-7.894248l28.594413 0C638.658486 507.316232 645.587987 518.982122 640.325156 528.54284z" p-id="4296"></path></svg>
<!-- 钱币 -->
<svg id="coin" t="1525229774509" class="icon" style="" viewBox="0 0 1024 1024" version="1.1" xmlns="http://www.w3.org/2000/svg" p-id="6472" xmlns:xlink="http://www.w3.org/1999/xlink" width="100%" height="100%"><defs><style type="text/css"></style></defs><path d="M189.44 248.32a321.536 155.648 0 1 0 643.072 0 321.536 155.648 0 1 0-643.072 0Z" fill="#ffffff" p-id="6473"></path><path d="M189.44 388.096V487.424c308.224 183.296 642.56 0 642.56 0v-99.328c-357.888 158.208-642.56 0-642.56 0z" fill="#ffffff" p-id="6474"></path><path d="M189.44 556.544v99.328c308.224 183.296 642.56 0 642.56 0V556.544c-357.888 158.208-642.56 0-642.56 0z" fill="#ffffff" p-id="6475"></path><path d="M189.44 719.872V819.2c308.224 183.296 642.56 0 642.56 0V719.872c-357.888 158.208-642.56 0-642.56 0z" fill="#ffffff" p-id="6476"></path></svg>
<!-- 向上滚动箭头 -->
<svg id="goto-top" t="1526451053446" class="icon" style="" viewBox="0 0 1024 1024" version="1.1" xmlns="http://www.w3.org/2000/svg" p-id="1033" xmlns:xlink="http://www.w3.org/1999/xlink" width="100%" height="100%"><defs><style type="text/css"></style></defs><path d="M66.56 105.8048a38.92736 38.92736 0 0 1 38.92224-38.92736h813.03552c21.504 0 38.92736 17.42848 38.92736 38.92736a38.92736 38.92736 0 0 1-38.92736 38.93248H105.48224A38.92736 38.92736 0 0 1 66.56 105.8048zM512.08704 215.57248a38.9376 38.9376 0 0 1 38.93248 38.93248v663.69024a38.93248 38.93248 0 0 1-77.85984 0V254.49984a38.93248 38.93248 0 0 1 38.92736-38.92736z" fill="" p-id="1034"></path><path d="M484.57216 227.22048a38.93248 38.93248 0 0 1 55.04 0l292.12672 292.13696a38.92224 38.92224 0 0 1 0 55.04512 38.912 38.912 0 0 1-55.04 0L484.57216 282.27072a38.912 38.912 0 0 1 0-55.05024z" fill="" p-id="1035"></path><path d="M539.61216 227.22048a38.93248 38.93248 0 0 1 0 55.05536l-292.13696 292.12672a38.90176 38.90176 0 0 1-55.04512 0 38.912 38.912 0 0 1 0-55.04512l292.14208-292.13696a38.93248 38.93248 0 0 1 55.04 0z" fill="" p-id="1036"></path></svg>
<!-- 向下箭头 -->
<svg id="goto-bottom" t="1526629224541" class="icon" style="" viewBox="0 0 1024 1024" version="1.1" xmlns="http://www.w3.org/2000/svg" p-id="2630" xmlns:xlink="http://www.w3.org/1999/xlink" width="100%" height="100%"><defs><style type="text/css"></style></defs><path d="M1.706667 285.546667c0-5.354667 2.026667-10.730667 6.037333-14.890667 8.234667-8.448 21.738667-8.618667 30.165333-0.405333l450.538667 438.805333c7.722667 7.552 17.408 8.213333 22.485333 7.957333 10.88 0.448 18.858667-2.368 24.554667-7.957333l450.581333-438.805333c8.448-8.213333 21.952-8.042667 30.165333 0.405333 8.213333 8.426667 8.042667 21.952-0.405333 30.165333l-450.56 438.826667c-14.336 13.909333-33.621333 21.034667-54.336 20.010667-18.624 1.045333-37.930667-6.08-52.245333-20.010667L8.170667 300.842667C3.861333 296.661333 1.706667 291.114667 1.706667 285.546667z" p-id="2631"></path></svg>